<svg width="47" height="47" viewBox="0 0 47 47" fill="none" xmlns="http://www.w3.org/2000/svg">
<circle cx="23.5" cy="23.5" r="23.5" fill="#174AFF"/>
<path d="M33.0403 14.5862L30.4753 18.0228L31.8068 20.9495L34.1745 18.4979L33.0403 14.5862ZM38.8966 15.4106L31.4199 23.153L27.9887 15.6113L22.8749 24.3697L16.9591 15.6882L14.6912 23.2064L6.48279 15.467L9.15668 23.8732C9.28901 23.8502 9.42475 23.8376 9.56354 23.8376C10.8435 23.8376 11.8945 24.8555 11.8945 26.0947C11.8945 27.0054 11.3267 27.7959 10.5178 28.1515L10.8809 29.2932C11.7263 30.9708 15.7703 32.2677 22.8952 32.403C30.4341 32.5463 35.0141 31.2475 35.8124 29.2931L36.1087 27.9584C34.9632 27.8191 34.0662 26.864 34.0662 25.7194C34.0662 24.4802 35.1174 23.4623 36.3974 23.4623C36.6364 23.4623 36.8676 23.4979 37.0853 23.5637L38.8966 15.4106ZM12.2414 15.5449L12.3244 19.2564L14.0634 20.8961L14.7161 18.7325L12.2414 15.5449ZM22.4869 15.7367L20.8211 19.1202L22.7911 22.0113L24.4868 19.1073L22.4869 15.7367ZM36.3974 24.6937C35.8047 24.6937 35.3377 25.1457 35.3377 25.7196C35.3377 26.2934 35.8047 26.7455 36.3974 26.7455C36.9902 26.7455 37.4569 26.2934 37.4569 25.7196C37.4569 25.1458 36.9902 24.6937 36.3974 24.6937ZM9.56341 25.0689C8.9708 25.0689 8.50385 25.5211 8.50385 26.0949C8.50385 26.6687 8.97073 27.1208 9.56348 27.1208C10.1563 27.1208 10.623 26.6687 10.623 26.0949C10.623 25.5211 10.1562 25.0689 9.56341 25.0689ZM18.4308 26.2443C19.7107 26.2443 20.7618 27.2621 20.7618 28.5014C20.7618 29.7406 19.7107 30.7584 18.4308 30.7584C17.1508 30.7584 16.0997 29.7406 16.0997 28.5014C16.0997 27.2622 17.151 26.2443 18.4308 26.2443ZM27.3597 26.2443C28.6396 26.2443 29.6906 27.2621 29.6906 28.5014C29.6906 29.7406 28.6396 30.7584 27.3597 30.7584C26.0797 30.7584 25.0286 29.7406 25.0286 28.5014C25.0286 27.2622 26.0797 26.2443 27.3597 26.2443ZM18.4307 27.4756C17.8379 27.4756 17.3712 27.9275 17.3712 28.5014C17.3712 29.0752 17.8379 29.5274 18.4307 29.5274C19.0233 29.5274 19.4901 29.0752 19.4901 28.5014C19.4901 27.9276 19.0235 27.4756 18.4307 27.4756ZM27.3596 27.4756C26.7669 27.4756 26.3 27.9275 26.3 28.5014C26.3 29.0752 26.7669 29.5274 27.3597 29.5274C27.9524 29.5274 28.4193 29.0752 28.4193 28.5014C28.4193 27.9276 27.9523 27.4756 27.3596 27.4756Z" fill="white"/>
<path d="M13.7759 37.2759L14.3217 38.3957H16.0879L14.659 39.0879L15.2048 40.2077L13.7759 39.5156L12.347 40.2077L12.8928 39.0879L11.4638 38.3957H13.2301L13.7759 37.2759Z" fill="white"/>
<path d="M18.6379 37.2759L19.1837 38.3957H20.95L19.5211 39.0879L20.0669 40.2077L18.6379 39.5156L17.209 40.2077L17.7548 39.0879L16.3259 38.3957H18.0921L18.6379 37.2759Z" fill="white"/>
<path d="M23.5 37.2759L24.0458 38.3957H25.8121L24.3831 39.0879L24.9289 40.2077L23.5 39.5156L22.0711 40.2077L22.6169 39.0879L21.188 38.3957H22.9542L23.5 37.2759Z" fill="white"/>
<path d="M28.3621 37.2759L28.9079 38.3957H30.6741L29.2452 39.0879L29.791 40.2077L28.3621 39.5156L26.9331 40.2077L27.4789 39.0879L26.05 38.3957H27.8163L28.3621 37.2759Z" fill="white"/>
<path d="M33.2241 37.2759L33.7699 38.3957H35.5362L34.1073 39.0879L34.6531 40.2077L33.2241 39.5156L31.7952 40.2077L32.341 39.0879L30.9121 38.3957H32.6783L33.2241 37.2759Z" fill="white"/>
</svg>
